<svg xmlns="http://www.w3.org/2000/svg" xmlns:xlink="http://www.w3.org/1999/xlink" id="Layer_1" x="0px" y="0px" viewBox="0 0 500 500" style="enable-background:new 0 0 500 500;" xml:space="preserve">
<style type="text/css">
	.st0{fill:#00C2FF;}
</style>
<g>
	<g>
		<path class="st0" d="M427.9,121L273.3,32.5c-14.5-8.2-32.2-8.2-46.7,0L72.1,121c-14.6,8.4-23.6,23.9-23.7,40.8v176.5    c0,16.8,9.1,32.4,23.7,40.7l154.6,88.5l0,0c14.5,8.2,32.2,8.2,46.7,0L427.9,379c14.6-8.4,23.6-23.9,23.6-40.8V161.7    C451.5,144.9,442.5,129.4,427.9,121z M411.2,338.3c0,2.4-1.3,4.6-3.4,5.8l-154.6,88.4c-2,1.2-4.6,1.2-6.6,0L92.1,344    c-2.1-1.2-3.3-3.4-3.3-5.8V161.7c0-2.4,1.3-4.6,3.3-5.7l154.6-88.5c2-1.2,4.6-1.2,6.6,0L407.9,156c2.1,1.2,3.3,3.4,3.4,5.8V338.3z    "></path>
	</g>
	<g>
		<path class="st0" d="M244,351.7c-18.9,0-34.2-16.3-34.2-36.4c0-8.9,3-17.4,8.5-24.1c3.1-3.7,4.6-8.2,4.6-13.1c0-2.2,0-4.4,0.1-6.6    l0-0.4c0.3-5.5,0.7-11.3,1.3-17c1-8.6,2.1-16.2,3.6-23.3c0.8-3.7,1.5-7.6,2.5-11.5c0.7-3.1,1.6-6.2,2.4-9.1l0.6-2.2    c4.3-15.3,10-30.2,17.1-44.4c0.6-1.4,1.3-2.6,2-3.8c0.3-0.5,0.6-1.1,0.9-1.6c0,0,0-0.1,0.1-0.1c0.3-0.6,0.6-1.2,0.9-1.7    c0.6-1.1,1.2-2.3,1.9-3.5c2.2-3.8,4.3-7.2,6.3-10.2c4.1-6.5,9-13,14.4-19.6c2.3-2.8,6.4-3.5,9.5-1.7c3.2,1.8,4.5,5.7,3.3,9.1    c-4.2,11.4-9.5,26.4-13.4,41.8c0,0,0,0.1,0,0.1c-1.7,6.4-3.1,13-4.5,19.4l-0.3,1.4c-0.2,1-0.4,2-0.6,3c-0.5,2.6-0.9,5-1.3,7.4    c0,0.1,0,0.1,0,0.2c-0.5,3-1,5.9-1.4,9l-0.4,3.2c-0.4,3-0.7,5.8-1,8.6c0,0.1,0,0.2,0,0.2c-0.4,3.1-0.6,6.3-0.9,9.6l-0.1,0.8    l-0.3,5.3l-0.3,5.3c-0.2,3.8-0.3,7.2-0.3,10.5c0,3.2-0.1,6.9,0,10.6c0,3.1,0.1,6.2,0.2,9.3l0,1.1c0.4,5.4,2.4,10.8,5.9,15.7    c4.7,6.4,7.1,14.1,7.1,22.2C278.3,335.4,262.9,351.7,244,351.7z M258.7,181.6c-4.3,9.9-7.9,20-10.8,30.4l-0.6,2.2    c-0.8,3-1.6,5.8-2.3,8.6c-0.9,3.7-1.6,7.4-2.4,11c-1.3,6.7-2.4,13.9-3.3,22.1c-0.6,5.3-0.9,10.8-1.2,16.2l0,0.4    c-0.1,1.9-0.1,3.7-0.1,5.5c0.1,8.4-2.7,16.5-8,22.9c-3.3,4-5.1,9.1-5.1,14.5c0,11.8,8.6,21.4,19.2,21.4c10.6,0,19.2-9.6,19.2-21.4    c0-4.9-1.5-9.6-4.3-13.4c-5.2-7.2-8.3-15.4-8.8-23.6c0-0.1,0-0.1,0-0.2l0-1.2c-0.1-3.1-0.2-6.4-0.3-9.6c0-3.8,0-7.7,0-10.9    c0-3.5,0.2-7.1,0.3-11l0.3-5.4c0,0,0-0.1,0-0.1l0.3-5.4c0,0,0-0.1,0-0.1l0.1-0.9c0.3-3.3,0.5-6.7,0.9-10.1c0.3-3.1,0.6-6.1,1-9    l0.2-1.9c0-0.1,0-0.1,0-0.2l0.2-1.4c0.4-3.1,0.9-6.3,1.5-9.5c0.4-2.6,0.9-5.2,1.4-7.8c0.2-1,0.4-2,0.6-3c0-0.1,0-0.2,0-0.2    l0.3-1.5C257.7,186.4,258.2,184,258.7,181.6z"></path>
	</g>
	<g>
		<path class="st0" d="M244,379.6c-13.3,0-26.1-4.3-36.8-12.5c-19.7-15-28.4-40.7-22.1-65.4l5.9-23.3c0.6-2.5,0.1-5-1.5-7    c-1.6-2-3.9-3.1-6.4-3.1h-55.2c-4.1,0-7.5-3.4-7.5-7.5s3.4-7.5,7.5-7.5h55.2c7.2,0,13.9,3.3,18.3,8.9c4.4,5.7,5.9,12.9,4.2,19.9    l-5.9,23.3c-4.8,18.8,1.8,38.4,16.7,49.8c8.1,6.2,17.7,9.4,27.7,9.4c10.7,0,20.8-3.7,29.2-10.6c13.8-11.4,19.8-30.3,15.4-48.3    l-5.8-23.7c-1.7-7-0.1-14.2,4.3-19.9c4.4-5.6,11.1-8.9,18.3-8.9H369c4.1,0,7.5,3.4,7.5,7.5s-3.4,7.5-7.5,7.5h-63.6    c-2.5,0-4.9,1.1-6.5,3.1c-1.6,2-2.1,4.6-1.5,7l5.8,23.7c5.8,23.5-2.3,48.4-20.5,63.4C271.8,374.6,258.1,379.6,244,379.6z"></path>
	</g>
	<g>
		<path class="st0" d="M244.6,330.1c-7.5,0-13.7-6.1-13.7-13.7c0-2.5,2-4.5,4.5-4.5s4.5,2,4.5,4.5c0,2.6,2.1,4.7,4.7,4.7    s4.7-2.1,4.7-4.7c0-2.5,2-4.5,4.5-4.5s4.5,2,4.5,4.5C258.2,324,252.1,330.1,244.6,330.1z"></path>
	</g>
</g>
</svg>