<svg xmlns="http://www.w3.org/2000/svg" id="Layer_1" data-name="Layer 1" viewBox="0 0 500 500">
<defs><style>.cls-1{fill:#00c2ff;}</style></defs><title>Fertilidad-01</title>
<path class="cls-1" d="M428.49,120.85,273.75,32.3a47.15,47.15,0,0,0-46.7,0L72.31,120.85a47.13,47.13,0,0,0-23.66,40.8V338.34a20.18,20.18,0,1,0,40.36,0V161.65a6.67,6.67,0,0,1,3.35-5.77L247.09,67.33a6.68,6.68,0,0,1,6.62,0l154.73,88.55a6.67,6.67,0,0,1,3.35,5.77V338.34a6.69,6.69,0,0,1-3.35,5.78L253.71,432.67a6.68,6.68,0,0,1-6.62,0l-54.68-31.3a20.19,20.19,0,0,0-20,35l54.69,31.29a47.14,47.14,0,0,0,46.7,0l154.74-88.55a47.13,47.13,0,0,0,23.66-40.81V161.65A47.13,47.13,0,0,0,428.49,120.85Z"></path><path class="cls-1" d="M198.22,313.78c1.34-8.14,2.41-14.58,10.47-22.64,6.21-6.21,11.46-8.27,17.26-9.5a34.08,34.08,0,0,0,44.35-3.33l8.42-8.41a34.12,34.12,0,0,0,9.45-30.11h0a34.09,34.09,0,0,0-27.56-27.56h0a34.12,34.12,0,0,0-30.11,9.45l-8.41,8.42a34.09,34.09,0,0,0-9.46,30.11h0a35.6,35.6,0,0,0,1,4,52.32,52.32,0,0,0-19.21,12.65c-12.65,12.65-14.57,24.28-16.11,33.62-1.35,8.15-2.41,14.58-10.48,22.65s-14.49,9.12-22.64,10.47c-9.35,1.54-21,3.46-33.62,16.11S97,384,95.45,393.35C94.1,401.5,93,407.93,85,416s-14.5,9.13-22.65,10.48c-9.35,1.54-21,3.47-33.63,16.12A10.09,10.09,0,0,0,43,456.86c8.07-8.07,14.5-9.13,22.65-10.48,9.34-1.54,21-3.46,33.63-16.11s14.57-24.29,16.11-33.63c1.35-8.15,2.41-14.58,10.48-22.65s14.49-9.12,22.64-10.47c9.34-1.54,21-3.46,33.62-16.11S196.67,323.13,198.22,313.78Z"></path>
</svg>