<svg xmlns="http://www.w3.org/2000/svg" xmlns:xlink="http://www.w3.org/1999/xlink" id="Layer_1" x="0px" y="0px" viewBox="0 0 500 500" style="enable-background:new 0 0 500 500;" xml:space="preserve">
<style type="text/css">
	.st0{fill:#00C2FF;}
</style>
<g>
	<path class="st0" d="M48.2,161.6v176.7c0,16.9,9,32.4,23.7,40.8l154.8,88.6c14.5,8.2,32.2,8.2,46.7,0l0,0l154.8-88.6   c14.6-8.4,23.7-24,23.7-40.8V161.6c0-16.9-9-32.4-23.7-40.8L273.4,32.2c-14.5-8.2-32.2-8.2-46.7,0L71.9,120.8   C57.3,129.2,48.2,144.8,48.2,161.6z M88.6,161.6c0-2.4,1.3-4.6,3.4-5.8l154.8-88.6c2.1-1.2,4.6-1.2,6.6,0l154.8,88.6   c2.1,1.2,3.3,3.4,3.4,5.8v176.7c0,2.4-1.3,4.6-3.4,5.8l-154.8,88.6c-2.1,1.2-4.6,1.2-6.6,0L91.9,344.1c-2.1-1.2-3.3-3.4-3.4-5.8   L88.6,161.6z"></path>
	<path class="st0" d="M171.2,255.4c0,31.8,19.1,60.5,48.4,72.8H183c0,0,0,0,0,0c-2.6,0-4.7,2.1-4.7,4.7v12.8c0,0,0,0,0,0   c0,2.6,2.1,4.7,4.7,4.7h128.3c0,0,0,0,0,0c2.6,0,4.7-2.1,4.7-4.7V333c0-2.6-2.1-4.7-4.7-4.7h-30.9c17.2-7.1,31.3-20.1,39.8-36.6   h20.4c1.2,0,2.2-1,2.2-2.2v-17.9c0-1.2-1-2.2-2.2-2.2h-67.3c0,0,0,0,0,0c-1.2,0-2.2,1-2.2,2.2v17.9c0,0,0,0,0,0   c0,1.2,1,2.2,2.2,2.2h20.1c-10.2,12.2-25,19.5-40.9,20.2c-31.2,1.4-57.5-22.8-58.9-53.9c-1.4-31.2,22.8-57.5,53.9-58.9l13.1,30.3   c1.1,2.4,3.9,3.6,6.3,2.5l5.8-2.5l8.5,19.6c0.5,1.1,1.8,1.7,2.9,1.2l17.6-7.6c1.1-0.5,1.7-1.8,1.2-2.9l-8.4-19.6l5.8-2.5   c2.4-1.1,3.6-3.9,2.5-6.3l-35.2-81.5c-1.1-2.4-3.9-3.6-6.3-2.5L228,141.5c0,0,0,0,0,0c-2.4,1.1-3.5,3.9-2.5,6.3l12.8,29.6   C199.7,183.3,171.2,216.5,171.2,255.4L171.2,255.4z"></path>
</g>
</svg>