<svg xmlns="http://www.w3.org/2000/svg" viewBox="0 0 577.3 186.3"><defs><style>.a{fill:#00c4ff;}</style></defs><title>logo izerh</title><path class="a" d="M21.8,43.2A21.3,21.3,0,0,1,6.5,36.9,20.7,20.7,0,0,1,0,21.8,21,21,0,0,1,6.5,6.4,21,21,0,0,1,21.8,0,20.9,20.9,0,0,1,37.1,6.4a20.9,20.9,0,0,1,6.4,15.4A23.1,23.1,0,0,1,41.3,31a19.6,19.6,0,0,1-7.6,8.7A21.4,21.4,0,0,1,21.8,43.2Zm-19,140V54.3H40.9V183.2Z"></path><path class="a" d="M58.1,183.2v-24l69.6-71.4H65V54.3H180.7V81.1l-65.5,68.6h68v33.5Z"></path><path class="a" d="M195.5,119.5v-1A70.9,70.9,0,0,1,200.8,91a60.9,60.9,0,0,1,14.7-21.6,63.3,63.3,0,0,1,22.2-13.7,78.7,78.7,0,0,1,27.7-4.8,71.6,71.6,0,0,1,26.7,5A60.1,60.1,0,0,1,313.4,70a63,63,0,0,1,13.5,21.1,67.7,67.7,0,0,1,4.8,25.3l-.6,12.3H233.6a23.8,23.8,0,0,0,5.9,14.6,28.2,28.2,0,0,0,13.5,8.5,50.1,50.1,0,0,0,30,0c5.3-1.6,10.8-5,16.4-10.3l22.3,21.3q-22.8,23.5-55.6,23.5a85.2,85.2,0,0,1-28.5-4.7A63.7,63.7,0,0,1,215.1,168a61.6,61.6,0,0,1-14.5-21.2A71.3,71.3,0,0,1,195.5,119.5Zm38.7-15.6h59.1a19.7,19.7,0,0,0-2.8-9.1q-2.8-5-9.9-8.7a31.9,31.9,0,0,0-15.2-3.7A36.7,36.7,0,0,0,244,88.7C237.9,92.9,234.7,97.9,234.2,103.9Z"></path><path class="a" d="M350.6,183.2V54.3h38.1V71.9A31.7,31.7,0,0,1,403,56.8a48,48,0,0,1,23.1-5.4,89.2,89.2,0,0,1,10,.8V88a64.7,64.7,0,0,0-12.8-1.2c-10.8,0-19.2,2.9-25.4,8.9s-9.2,14.2-9.2,24.6v62.9Z"></path><path class="a" d="M455.3,183.2V4.9h38.1v65c2.5-5.5,7.1-9.9,13.7-13.3a46.6,46.6,0,0,1,22.4-5.2c15.1,0,26.9,4.8,35.3,14.2s12.5,22.6,12.5,39.3v78.3H539.2V109.5c0-7.5-1.9-13.4-5.8-17.8s-9.2-6.5-16.2-6.5a22.1,22.1,0,0,0-17,7.3c-4.6,4.9-6.8,11-6.8,18.3v72.4Z"></path></svg>