<svg xmlns="http://www.w3.org/2000/svg" id="Layer_1" data-name="Layer 1" viewBox="0 0 500 500">
<defs>
<style>.cls-1{fill:#00c2ff;}</style>
</defs>
<title>Ocupacional-01</title>
<path class="cls-1" d="M428.49,120.84,273.74,32.29a47.25,47.25,0,0,0-46.7,0L72.29,120.84a47.16,47.16,0,0,0-23.66,40.83V338.34a47.15,47.15,0,0,0,23.66,40.82l35.12,20.11,92.52,52.93L227,467.72a47.27,47.27,0,0,0,46.7,0L301.24,452l92.16-52.74,35.09-20.08a47.13,47.13,0,0,0,23.66-40.82V161.67A47.14,47.14,0,0,0,428.49,120.84Zm-16.7,217.5a6.68,6.68,0,0,1-3.36,5.79l-24.71,14.14-130,74.4a6.65,6.65,0,0,1-6.63,0L116.89,358.18,92.35,344.13A6.7,6.7,0,0,1,89,338.34V161.67a6.72,6.72,0,0,1,3.36-5.8L247.08,67.34a6.68,6.68,0,0,1,6.63,0l154.72,88.53a6.7,6.7,0,0,1,3.36,5.8Z"></path><path class="cls-1" d="M310.44,308.51h-1.25c-2.2,10.43-7.44,19.43-12.93,28.16-9.92,15.83-20.34,31.32-30.57,46.95-.35.52-.77,1-1.41,1.82-.19-2.5-.39-4.59-.55-6.7-.68-10-1.33-20.05-2.08-30.06a2.87,2.87,0,0,1,1.62-3.05,21.47,21.47,0,0,0,9.81-14.23,21.12,21.12,0,0,0,.25-2.54,62.37,62.37,0,0,1-45.87,0,19.45,19.45,0,0,0,.24,2.54,21.5,21.5,0,0,0,9.81,14.23,2.87,2.87,0,0,1,1.62,3.05c-.74,10-1.4,20-2.08,30.06-.16,2.11-.35,4.2-.55,6.7-.64-.84-1.05-1.3-1.41-1.82-10.22-15.63-20.65-31.12-30.57-46.95-5.49-8.73-10.73-17.73-12.93-28.16h-1.25c-35.35-.7-50.76,12.93-57.3,23.11a11,11,0,0,0,3.75,15.52l94.51,54.1c5.88,3.36,12.24,5.62,19.09,5.62,6.61.15,13.21-2.26,19.1-5.62l94.5-54.1a11,11,0,0,0,3.75-15.52C361.2,321.44,345.8,307.81,310.44,308.51Z"></path><path class="cls-1" d="M176.54,219.08q36.9,0,73.85,0t73.85,0c4.88,0,8.56-1.78,10.58-6.3a10.31,10.31,0,0,0-9-14.46c-1,0-2,0-3.12,0-1.2-28.31-14-49.32-39-63.39-.92,5.14-1.75,9.79-2.59,14.47-1.09,6.21-2.13,12.44-3.25,18.65a5.51,5.51,0,0,1-6.4,4.72c-3-.57-4.85-3.31-4.26-6.72,1.43-8.31,2.92-16.61,4.39-24.93.68-3.79,1.4-7.57,2-11.39a3.51,3.51,0,0,0-.63-2.46,13.22,13.22,0,0,0-10.63-5.46c-3.95-.07-7.9-.09-11.87-.09s-7.92,0-11.87.09a13.19,13.19,0,0,0-10.62,5.46,3.47,3.47,0,0,0-.64,2.46c.57,3.82,1.29,7.6,2,11.39,1.47,8.32,3,16.62,4.39,24.93.6,3.41-1.23,6.15-4.25,6.72a5.51,5.51,0,0,1-6.41-4.72c-1.12-6.21-2.15-12.44-3.25-18.65-.84-4.68-1.67-9.33-2.59-14.47-25,14.07-37.79,35.08-39,63.39-1.08,0-2.11,0-3.12,0a10.31,10.31,0,0,0-9,14.46C168,217.3,171.67,219.08,176.54,219.08Z"></path><path class="cls-1" d="M179.57,235.28a130.54,130.54,0,0,0,11.72,39.24c6.69,13.63,15.47,25.59,28.24,34.15,9.7,6.52,20,9.85,30.86,9.48,10.86.37,21.16-3,30.86-9.48,12.77-8.56,21.55-20.52,28.24-34.15a130.25,130.25,0,0,0,11.72-39.24c.09-.64.11-1.28.18-2.07h-142C179.46,234,179.48,234.64,179.57,235.28Z"></path></svg>